<svg id="_0049_camping" xmlns="http://www.w3.org/2000/svg" xmlns:xlink="http://www.w3.org/1999/xlink" viewBox="0 0 500 500" data-imageid="camping-82" imageName="Camping" class="illustrations_image" style="width: 160px;"><defs><style>.cls-1_camping-82{opacity:.69;}.cls-1_camping-82,.cls-2_camping-82,.cls-3_camping-82,.cls-4_camping-82,.cls-5_camping-82,.cls-6_camping-82,.cls-7_camping-82,.cls-8_camping-82,.cls-9_camping-82,.cls-10_camping-82,.cls-11_camping-82,.cls-12_camping-82,.cls-13_camping-82,.cls-14_camping-82,.cls-15_camping-82,.cls-16_camping-82,.cls-17_camping-82,.cls-18_camping-82,.cls-19_camping-82,.cls-20_camping-82,.cls-21_camping-82,.cls-22_camping-82,.cls-23_camping-82,.cls-24_camping-82,.cls-25_camping-82,.cls-26_camping-82,.cls-27_camping-82,.cls-28_camping-82,.cls-29_camping-82,.cls-30_camping-82,.cls-31_camping-82,.cls-32_camping-82,.cls-33_camping-82,.cls-34_camping-82,.cls-35_camping-82,.cls-36_camping-82,.cls-37_camping-82,.cls-38_camping-82,.cls-39_camping-82,.cls-40_camping-82,.cls-41_camping-82,.cls-42_camping-82,.cls-43_camping-82,.cls-44_camping-82,.cls-45_camping-82,.cls-46_camping-82,.cls-47_camping-82,.cls-48_camping-82,.cls-49_camping-82,.cls-50_camping-82,.cls-51_camping-82,.cls-52_camping-82,.cls-53_camping-82{stroke-width:0px;}.cls-1_camping-82,.cls-39_camping-82,.cls-49_camping-82{isolation:isolate;}.cls-1_camping-82,.cls-39_camping-82,.cls-49_camping-82,.cls-53_camping-82{fill:#68e1fd;}.cls-2_camping-82{fill:none;}.cls-3_camping-82{fill:url(#linear-gradient);}.cls-4_camping-82{fill:url(#linear-gradient-38-camping-82);}.cls-5_camping-82{fill:url(#linear-gradient-33-camping-82);}.cls-6_camping-82{fill:url(#linear-gradient-29-camping-82);}.cls-7_camping-82{fill:url(#linear-gradient-32-camping-82);}.cls-8_camping-82{fill:url(#linear-gradient-30-camping-82);}.cls-9_camping-82{fill:url(#linear-gradient-31-camping-82);}.cls-10_camping-82{fill:url(#linear-gradient-36-camping-82);}.cls-11_camping-82{fill:url(#linear-gradient-39-camping-82);}.cls-12_camping-82{fill:url(#linear-gradient-34-camping-82);}.cls-13_camping-82{fill:url(#linear-gradient-37-camping-82);}.cls-14_camping-82{fill:url(#linear-gradient-35-camping-82);}.cls-15_camping-82{fill:url(#linear-gradient-28-camping-82);}.cls-16_camping-82{fill:url(#linear-gradient-25-camping-82);}.cls-17_camping-82{fill:url(#linear-gradient-11-camping-82);}.cls-18_camping-82{fill:url(#linear-gradient-12-camping-82);}.cls-19_camping-82{fill:url(#linear-gradient-13-camping-82);}.cls-20_camping-82{fill:url(#linear-gradient-10-camping-82);}.cls-21_camping-82{fill:url(#linear-gradient-17-camping-82);}.cls-22_camping-82{fill:url(#linear-gradient-16-camping-82);}.cls-23_camping-82{fill:url(#linear-gradient-19-camping-82);}.cls-24_camping-82{fill:url(#linear-gradient-15-camping-82);}.cls-25_camping-82{fill:url(#linear-gradient-23-camping-82);}.cls-26_camping-82{fill:url(#linear-gradient-21-camping-82);}.cls-27_camping-82{fill:url(#linear-gradient-18-camping-82);}.cls-28_camping-82{fill:url(#linear-gradient-14-camping-82);}.cls-29_camping-82{fill:url(#linear-gradient-22-camping-82);}.cls-30_camping-82{fill:url(#linear-gradient-20-camping-82);}.cls-31_camping-82{fill:url(#linear-gradient-27-camping-82);}.cls-32_camping-82{fill:url(#linear-gradient-24-camping-82);}.cls-33_camping-82{fill:url(#linear-gradient-26-camping-82);}.cls-34_camping-82{fill:url(#linear-gradient-44-camping-82);}.cls-35_camping-82{fill:url(#linear-gradient-42-camping-82);}.cls-36_camping-82{fill:url(#linear-gradient-43-camping-82);}.cls-37_camping-82{fill:url(#linear-gradient-40-camping-82);}.cls-38_camping-82{fill:url(#linear-gradient-41-camping-82);}.cls-39_camping-82{opacity:.35;}.cls-40_camping-82{fill:url(#linear-gradient-4-camping-82);}.cls-41_camping-82{fill:url(#linear-gradient-2-camping-82);}.cls-42_camping-82{fill:url(#linear-gradient-3-camping-82);}.cls-43_camping-82{fill:url(#linear-gradient-8-camping-82);}.cls-44_camping-82{fill:url(#linear-gradient-9-camping-82);}.cls-45_camping-82{fill:url(#linear-gradient-7-camping-82);}.cls-46_camping-82{fill:url(#linear-gradient-5-camping-82);}.cls-47_camping-82{fill:url(#linear-gradient-6-camping-82);}.cls-49_camping-82{opacity:.27;}.cls-50_camping-82{fill:#c14834;}.cls-51_camping-82{fill:#fff;}.cls-52_camping-82{fill:#ffb4a3;}</style><linearGradient id="linear-gradient-camping-82" x1="-358.51" y1="3119.78" x2="-297.3" y2="3119.78" gradientTransform="translate(408.33 3374.26) scale(1 -1)" gradientUnits="userSpaceOnUse"><stop offset="0" stop-color="#231f20" stop-opacity="0"/><stop offset="1" stop-color="#231f20"/></linearGradient><linearGradient id="linear-gradient-2-camping-82" x1="-187.21" y1="3054.88" x2="-81.11" y2="3089.96" xlink:href="#linear-gradient-camping-82"/><linearGradient id="linear-gradient-3-camping-82" x1="-54.63" y1="3099.62" x2="-1.03" y2="2885.24" xlink:href="#linear-gradient-camping-82"/><linearGradient id="linear-gradient-4-camping-82" x1="-172.87" y1="3146.67" x2="-291.75" y2="3146.02" gradientTransform="translate(409 3444.65) scale(1 -1)" xlink:href="#linear-gradient-camping-82"/><linearGradient id="linear-gradient-5-camping-82" x1="-246.48" y1="2976.55" x2="-239.44" y2="2971.35" xlink:href="#linear-gradient-camping-82"/><linearGradient id="linear-gradient-6-camping-82" x1="-225.96" y1="2975.15" x2="-237.96" y2="2973.53" xlink:href="#linear-gradient-camping-82"/><linearGradient id="linear-gradient-7-camping-82" x1="-210.54" y1="2975.38" x2="-218.76" y2="2969.53" xlink:href="#linear-gradient-camping-82"/><linearGradient id="linear-gradient-8-camping-82" x1="-251.42" y1="2972.84" x2="-232.51" y2="2972.84" xlink:href="#linear-gradient-camping-82"/><linearGradient id="linear-gradient-9-camping-82" x1="-233.41" y1="2994.51" x2="-226.92" y2="3061.74" gradientTransform="translate(408.33 3374.26) scale(1 -1)" gradientUnits="userSpaceOnUse"><stop offset="0" stop-color="#fff" stop-opacity="0"/><stop offset="1" stop-color="#fff"/></linearGradient><linearGradient id="linear-gradient-10-camping-82" x1="-232.77" y1="2997.65" x2="-228.56" y2="3041.2" xlink:href="#linear-gradient-9-camping-82"/><linearGradient id="linear-gradient-11-camping-82" x1="-285.91" y1="3051.02" x2="-308.87" y2="3049.5" xlink:href="#linear-gradient-camping-82"/><linearGradient id="linear-gradient-12-camping-82" x1="-308.63" y1="2990.65" x2="-296.72" y2="2960.55" xlink:href="#linear-gradient-camping-82"/><linearGradient id="linear-gradient-13-camping-82" x1="-298.74" y1="3021.57" x2="-324.73" y2="2931.27" xlink:href="#linear-gradient-camping-82"/><linearGradient id="linear-gradient-14-camping-82" x1="-299.04" y1="3051.76" x2="-332.17" y2="3047.54" xlink:href="#linear-gradient-camping-82"/><linearGradient id="linear-gradient-15-camping-82" x1="-309.69" y1="3056.83" x2="-336.98" y2="3028.67" xlink:href="#linear-gradient-camping-82"/><linearGradient id="linear-gradient-16-camping-82" x1="-273.45" y1="3014.17" x2="-299.44" y2="2982.02" xlink:href="#linear-gradient-camping-82"/><linearGradient id="linear-gradient-17-camping-82" x1="-249.66" y1="2989.65" x2="-265.8" y2="2976.32" xlink:href="#linear-gradient-camping-82"/><linearGradient id="linear-gradient-18-camping-82" x1="133.67" y1="329.92" x2="166.98" y2="329.92" gradientTransform="matrix(1,0,0,1,0,0)" xlink:href="#linear-gradient-camping-82"/><linearGradient id="linear-gradient-19-camping-82" x1="-278.08" y1="2974.01" x2="-289.66" y2="2967.4" xlink:href="#linear-gradient-camping-82"/><linearGradient id="linear-gradient-20-camping-82" x1="-353.17" y1="2979.41" x2="-327.17" y2="2979.41" xlink:href="#linear-gradient-camping-82"/><linearGradient id="linear-gradient-21-camping-82" x1="-348.93" y1="2977.78" x2="-331.41" y2="2977.78" xlink:href="#linear-gradient-camping-82"/><linearGradient id="linear-gradient-22-camping-82" x1="-316.03" y1="3105.9" x2="-285.61" y2="3105.03" xlink:href="#linear-gradient-camping-82"/><linearGradient id="linear-gradient-23-camping-82" x1="-313.45" y1="3117.07" x2="-330.01" y2="3097.48" xlink:href="#linear-gradient-camping-82"/><linearGradient id="linear-gradient-24-camping-82" x1="-313.89" y1="3100.9" x2="-286.69" y2="3100.12" xlink:href="#linear-gradient-camping-82"/><linearGradient id="linear-gradient-25-camping-82" x1="-297.13" y1="3009.37" x2="-313.58" y2="2986.63" xlink:href="#linear-gradient-camping-82"/><linearGradient id="linear-gradient-26-camping-82" x1="-93.92" y1="2967.57" x2="-114.38" y2="3005.89" xlink:href="#linear-gradient-camping-82"/><linearGradient id="linear-gradient-27-camping-82" x1="-82.73" y1="2985.26" x2="-94.08" y2="2928.14" xlink:href="#linear-gradient-camping-82"/><linearGradient id="linear-gradient-28-camping-82" x1="-143.92" y1="3010.87" x2="-130.29" y2="2987.48" xlink:href="#linear-gradient-camping-82"/><linearGradient id="linear-gradient-29-camping-82" x1="-137.31" y1="3040.03" x2="-114.25" y2="3022.82" xlink:href="#linear-gradient-camping-82"/><linearGradient id="linear-gradient-30-camping-82" x1="-124.89" y1="3028.82" x2="-79.75" y2="3023.95" xlink:href="#linear-gradient-camping-82"/><linearGradient id="linear-gradient-31-camping-82" x1="-133.35" y1="3002.02" x2="-107.58" y2="2976.69" xlink:href="#linear-gradient-camping-82"/><linearGradient id="linear-gradient-32-camping-82" x1="-98.8" y1="3020.84" x2="-85.04" y2="3029.18" xlink:href="#linear-gradient-camping-82"/><linearGradient id="linear-gradient-33-camping-82" x1="-100.39" y1="3034.45" x2="-109.98" y2="2994.18" xlink:href="#linear-gradient-camping-82"/><linearGradient id="linear-gradient-34-camping-82" x1="-92.16" y1="3033.19" x2="-73" y2="3033.73" xlink:href="#linear-gradient-camping-82"/><linearGradient id="linear-gradient-35-camping-82" x1="-82.32" y1="2979.08" x2="-90.93" y2="2935.75" xlink:href="#linear-gradient-camping-82"/><linearGradient id="linear-gradient-36-camping-82" x1="-83.33" y1="2973.5" x2="-88.07" y2="2949.66" xlink:href="#linear-gradient-camping-82"/><linearGradient id="linear-gradient-37-camping-82" x1="300.31" y1="311.81" x2="298.35" y2="294.87" gradientTransform="matrix(1,0,0,1,0,0)" xlink:href="#linear-gradient-camping-82"/><linearGradient id="linear-gradient-38-camping-82" x1="-131.62" y1="3033.51" x2="-134.39" y2="3027.34" xlink:href="#linear-gradient-camping-82"/><linearGradient id="linear-gradient-39-camping-82" x1="-132.65" y1="3032.41" x2="-137.78" y2="3019.83" xlink:href="#linear-gradient-camping-82"/><linearGradient id="linear-gradient-40-camping-82" x1="-157.52" y1="3047.38" x2="-169.27" y2="3028.32" xlink:href="#linear-gradient-camping-82"/><linearGradient id="linear-gradient-41-camping-82" x1="-113.91" y1="3019.13" x2="-109.34" y2="3017.3" xlink:href="#linear-gradient-camping-82"/><linearGradient id="linear-gradient-42-camping-82" x1="-111.62" y1="3018.24" x2="-105.6" y2="3015.82" xlink:href="#linear-gradient-camping-82"/><linearGradient id="linear-gradient-43-camping-82" x1="-111.44" y1="3018.27" x2="-106.89" y2="3016.44" xlink:href="#linear-gradient-camping-82"/><linearGradient id="linear-gradient-44-camping-82" x1="-114.15" y1="3086.35" x2="-112.89" y2="3093.23" gradientTransform="translate(409 3444.65) scale(1 -1)" xlink:href="#linear-gradient-camping-82"/></defs><path id="background_camping-82" class="cls-49_camping-82 targetColor" d="M118.11,102.71s105.44-37.16,150.58-7.89c45.14,29.27,12.01,75.91,84.12,87.19,72.11,11.28,99.4,35.25,107.18,69.55,7.79,34.3-17.3,105.28-17.3,105.28h0c-18.81,28.05-48.4,47.07-81.73,52.52l-63.15,10.38s-215.58,7.67-251.79-49.98c-36.21-57.65-16.38-144.2-16.38-144.2,0,0,35.02-97.48,88.47-122.86Z" style="fill: rgb(251, 191, 36);"/><path id="floor_camping-82" class="cls-39_camping-82 targetColor" d="M474.04,353.47c-2.15,7.37-9.16,12.39-16.43,14.87-7.27,2.48-15.05,3-22.53,4.73-13.21,3.03-25.29,9.77-38.36,13.34-31.63,8.61-66.33-2.01-97.61,7.78,1.81,7.49,16.38,6.34,16.77,14.04-.02,1.89-.76,3.69-2.07,5.05-3.85,4.45-10.13,5.77-15.99,6.39-20.77,2.15-41.53-1.74-62.3-4.25-50.26-6.07-101.09-3.99-151.71-4.53-11.71-.13-23.59-.42-34.77-3.9-3.81-1.15-8.31-4.79-6.28-8.23.98-1.28,2.38-2.18,3.95-2.56l43.62-15.94-59.04-.47c1.64-6.58,7.96-10.89,14.69-10.01-6.63-1.5-13-3.96-18.92-7.3-1.43-.61-2.57-1.73-3.21-3.15-.92-3.03,2.71-5.36,5.77-6.31,12.87-4.01,26.53-4.8,39.95-5.56l65.06-3.66c109.36-6.15,216.26,5.71,325.78,6.92,1.79,1.25,3.67,1.15,5.85,1.15,2.17-.12,4.35-.12,6.53,0,.42.01.82.16,1.15.42.33.35.45.97.08,1.19Z" style="fill: rgb(251, 191, 36);"/><g id="tree_camping-82"><path class="cls-53_camping-82 targetColor" d="M102.19,226.41c1.15-2.95,2.96-6.92,5.99-6.06,1.41.43,2.21,1.87,3.3,2.88,3.46,3.3,9.7,1.48,12.56-2.41,2.86-3.89,3.3-8.98,3.65-13.77,6.41,2.59,13.7-.51,16.3-6.91,2.26-5.6.2-12.02-4.9-15.26,7.45-3.59,10.38-14.27,5.7-21.12,6.39-11.18,1.15-27.33-10.51-32.69,2.31-5.36-1.15-11.32-4.52-16.15-6.01-8.58-15.39-18.34-25.18-14.58-3.59-11.19-15.58-17.34-26.76-13.74-5.36,1.72-9.83,5.51-12.4,10.51-4.33-4.81-11.34-6.12-17.11-3.2-5.62,3.19-8.42,9.76-6.82,16.02-4.33-3.07-10.74,1.15-11.85,6.31-1.11,5.16,1.27,10.38,3.59,15.19-5.04-1.6-10.52.38-13.37,4.83-2.63,4.58-1.87,10.35,1.86,14.09-3.95-2.31-9.32.16-11.71,4.07-2.39,3.91-2.61,8.73-2.75,13.31-.29,9.58,0,20.58,7.44,26.66-7.27,4.87-9.99,14.25-6.46,22.25,4.02,7.76,13.03,11.52,21.38,8.92-1.47,5.83,2.06,11.75,7.89,13.22.18.05.37.09.55.12,3.09.46,6.6-.38,9.1,1.49,1.42,1.05,2.18,2.78,3.46,4,3.62,3.46,9.09.83,11.07-2.92,10.16,9.23,36.28-3.91,40.5-15.08Z" style="fill: rgb(251, 191, 36);"/><path class="cls-53_camping-82 targetColor" d="M46.47,175.55s11.54,26.53,12.77,56.14c1.23,29.6,7.98,117.9-14.58,131.81h46.56s-7.31-10.83-9.96-32.79c-2.64-21.95-13.05-107.25-1.35-131.1,7.28-14.72,15.98-28.69,25.96-41.73h-2.62l-29.72,45.11-3.55-26.18v-.37c-.08-6.78-1.49-30.19-7.96-30.19l.15,69.34s-6.4-33.96-14.72-47.59l-.98,7.53Z" style="fill: rgb(251, 191, 36);"/><path class="cls-3_camping-82" d="M46.47,175.15s11.54,26.53,12.77,56.14c1.23,29.6,7.98,117.84-14.58,131.81h46.56s-7.31-10.83-9.96-32.8c-2.64-21.97-13.06-107.29-1.35-131.13,7.28-14.71,15.98-28.68,25.96-41.72h-2.62l-29.72,45.14-3.55-26.18v-.37c-.08-6.78-1.49-30.19-7.96-30.19l.15,69.34s-6.4-33.96-14.72-47.59l-.98,7.53Z"/></g><g id="tent_camping-82"><path class="cls-48_camping-82" d="M256.34,215.67c.45-.05.77-.46.72-.91-.04-.38-.34-.67-.72-.72-.45.05-.77.46-.72.91.04.38.34.67.72.72Z"/><path class="cls-53_camping-82 targetColor" d="M128.6,351.89l87.28-117.12s65.76,88.28,79.17,113.27c13.42,25,23.37,25.5,23.37,25.5l-189.83-21.65Z" style="fill: rgb(251, 191, 36);"/><path class="cls-53_camping-82 targetColor" d="M128.6,351.89l87.28-117.12s65.76,88.28,79.17,113.27c13.42,25,23.37,25.5,23.37,25.5l-189.83-21.65Z" style="fill: rgb(251, 191, 36);"/><path class="cls-41_camping-82" d="M128.6,351.89l87.28-117.12s65.76,88.28,79.17,113.27c13.42,25,23.37,25.5,23.37,25.5l-189.83-21.65Z"/><path class="cls-53_camping-82 targetColor" d="M394.09,231.68l-178.2,3.09s75.37,134.84,102.51,138.77c0,0,71.52-16.15,97.16-15.25,25.63.9,84.45-9.88,84.45-9.88,0,0-56.01-62.35-74.35-76.59-18.34-14.24-31.56-40.15-31.56-40.15Z" style="fill: rgb(251, 191, 36);"/><path class="cls-42_camping-82" d="M394.09,231.68l-178.2,3.09s75.37,134.84,102.51,138.77c0,0,71.52-16.15,97.16-15.25,25.63.9,84.45-9.88,84.45-9.88,0,0-56.01-62.35-74.35-76.59-18.34-14.24-31.56-40.15-31.56-40.15Z"/><polygon class="cls-40_camping-82" points="210.59 361.43 215.93 234.77 205.32 361.43 210.59 361.43"/></g><g id="fire_camping-82"><path class="cls-53_camping-82 targetColor" d="M147.55,414.29s2.31,4.61,4.35,5.01l26.83-35.83-3.06-4.74-28.13,35.57Z" style="fill: rgb(251, 191, 36);"/><path class="cls-53_camping-82 targetColor" d="M178.74,420.73c2.28,1.15,4.97,1.15,7.26,0l-4.49-40.38s-4.14-5.77-5.77-1.6c-1.63,4.16,3,41.98,3,41.98Z" style="fill: rgb(251, 191, 36);"/><path class="cls-53_camping-82 targetColor" d="M180.49,384.54l4.49-4.01,27.84,34.82s-3.33,3.8-6.54,2.98l-25.78-33.78Z" style="fill: rgb(251, 191, 36);"/><path class="cls-46_camping-82" d="M147.55,414.29s2.31,4.61,4.35,5.01l26.83-35.83-3.06-4.74-28.13,35.57Z"/><path class="cls-47_camping-82" d="M178.74,420.73c2.28,1.15,4.97,1.15,7.26,0l-4.49-40.38s-4.14-5.77-5.77-1.6c-1.63,4.16,3,41.98,3,41.98Z"/><path class="cls-45_camping-82" d="M180.49,384.54l4.49-4.01,27.84,34.82s-3.33,3.8-6.54,2.98l-25.78-33.78Z"/><path class="cls-53_camping-82 targetColor" d="M156.91,413.87c1.52,1.28,3.53,1.83,5.49,1.5l13.42-22.61v-5.4l-18.91,26.51Z" style="fill: rgb(251, 191, 36);"/><path class="cls-43_camping-82" d="M156.91,413.87c1.52,1.28,3.53,1.83,5.49,1.5l13.42-22.61v-5.4l-18.91,26.51Z"/><path class="cls-1_camping-82 targetColor" d="M160.08,371.65c-2.03-3.89-1.53-8.7.24-12.69,1.78-3.99,4.7-7.37,7.58-10.67-.46,1.24-.34,2.63.33,3.77.21-5.02,3.86-9.11,6.02-13.65,2.01-4.24,2.74-8.97,2.11-13.61l2.31,7.09c1.32-2.66.59-5.85,1.15-8.77.91-5.01,5.26-8.55,9.31-11.62-1.98,4.27-4,8.76-3.73,13.45.38,6.19,4.67,11.46,6.11,17.5,1.01,4.28.55,8.76-1.3,12.75-.81,1.72-1.88,3.4-1.92,5.31,1.63-2.06,3.89-3.55,6.43-4.23-3.1,2.43-2.87,7.13-2.31,11.03.63,3.1.71,6.28.25,9.4-1.45,6.92-9.84,12.17-16.83,11.36-3.69-.43-5.42-3.52-7.39-6.3-2.51-3.54-6.36-6.29-8.38-10.13Z" style="fill: rgb(251, 191, 36);"/><path class="cls-44_camping-82" d="M160.08,371.65c-2.03-3.89-1.53-8.7.24-12.69,1.78-3.99,4.7-7.37,7.58-10.67-.46,1.24-.34,2.63.33,3.77.21-5.02,3.86-9.11,6.02-13.65,2.01-4.24,2.74-8.97,2.11-13.61l2.31,7.09c1.32-2.66.59-5.85,1.15-8.77.91-5.01,5.26-8.55,9.31-11.62-1.98,4.27-4,8.76-3.73,13.45.38,6.19,4.67,11.46,6.11,17.5,1.01,4.28.55,8.76-1.3,12.75-.81,1.72-1.88,3.4-1.92,5.31,1.63-2.06,3.89-3.55,6.43-4.23-3.1,2.43-2.87,7.13-2.31,11.03.63,3.1.71,6.28.25,9.4-1.45,6.92-9.84,12.17-16.83,11.36-3.69-.43-5.42-3.52-7.39-6.3-2.51-3.54-6.36-6.29-8.38-10.13Z"/><path class="cls-20_camping-82" d="M165.96,371.36c-1.18-2.62-1.12-5.64.16-8.21,1.27-2.54,2.93-4.88,4.9-6.92-.3.81-.22,1.71.22,2.45.14-3.25,2.5-5.91,3.9-8.85,1.3-2.74,1.78-5.8,1.37-8.81l1.52,4.61c.84-1.73.38-3.8.73-5.69.59-3.24,3.46-5.54,6.03-7.52-1.29,2.76-2.61,5.66-2.42,8.71.24,4.01,3.03,7.43,3.96,11.33.65,2.77.36,5.68-.84,8.26-.65,1.06-1.07,2.23-1.23,3.46,1.06-1.34,2.52-2.3,4.16-2.73-2.02,1.58-1.87,4.61-1.51,7.14.41,2.01.47,4.07.17,6.09-.95,4.5-6.38,7.88-10.9,7.36-2.4-.28-3.52-2.31-4.8-4.08-1.64-2.31-4.12-4.14-5.42-6.59Z"/></g><g id="character_1_camping-82"><path class="cls-48_camping-82" d="M115.58,273.05s-.62-14.24-17.63-14.14c-11.17.07-13.64,9-13.17,18.05.47,9.52,3.24,11.47,3.24,11.47l2.58-1.53s23.43-13.86,24.98-13.84Z"/><path class="cls-53_camping-82 targetColor" d="M102.83,297.8s7.52-.3,19.88,39.22c.22.7,10.91,6.51,10.91,6.51l-8.01,6.24-11.17-3.05s-21.41-39.03-11.62-48.93Z" style="fill: rgb(251, 191, 36);"/><path class="cls-17_camping-82" d="M102.83,297.8s7.52-.3,19.88,39.22c.22.7,10.91,6.51,10.91,6.51l-8.01,6.24-11.17-3.05s-21.41-39.03-11.62-48.93Z"/><path class="cls-53_camping-82 targetColor" d="M61.13,378.49l54.91-20.96s7.72-2.48,12.56,7.13c2.9,5.71,4.1,12.14,3.46,18.52,0,0-53.21,26.99-53.82,26.53s-17.12-31.22-17.12-31.22Z" style="fill: rgb(251, 191, 36);"/><path class="cls-18_camping-82" d="M61.13,378.49l54.91-20.96s7.72-2.48,12.56,7.13c2.9,5.71,4.1,12.14,3.46,18.52,0,0-53.21,26.99-53.82,26.53s-17.12-31.22-17.12-31.22Z"/><path class="cls-19_camping-82" d="M77.74,372.84c-1.03.62-2.2,1.51-2.08,2.71.13,1.2,1.15,1.71,2.16,2.13,7.65,3.31,16.34,2.62,24.68,2.5.56-.05,1.12.02,1.65.21.9.53,1.56,1.38,1.86,2.39l2.19,5.04c.27.89.87,1.65,1.67,2.13.71.25,1.48.25,2.19,0,2.09-.43,3.91-1.68,5.08-3.46,1.51-2.76.33-6.13-.21-9.23-.24-1.44-.2-3.23,1.05-3.99.63-.32,1.35-.45,2.05-.37,2.14-.01,4.23.56,6.07,1.65,1.85,1.12,3.02,3.1,3.09,5.26.98-2.57,1.42-5.32,1.29-8.08.03-1.05-.27-2.09-.87-2.95-.94-.9-2.16-1.44-3.46-1.51-13.01-2.18-26.32-1.89-39.22.85-3.71.76-5.94,2.75-9.19,4.71Z"/><path class="cls-53_camping-82 targetColor" d="M87.59,292.67s-9.98,3.85-12.32,5.58c-2.34,1.73-5.77,5-3.92,14.55.95,5.31,2.26,10.54,3.92,15.67,0,0,4.35,20.36,3.95,26.29-.4,5.93,29.21,1.15,34.09-3.33,4.88-4.49-3.23-20.32-2.08-28.55,1.15-8.24-6.43-24.58-10.09-26.78-3.67-2.19-13.54-3.43-13.54-3.43Z" style="fill: rgb(251, 191, 36);"/><path class="cls-28_camping-82" d="M87.59,292.67s-9.98,3.85-12.32,5.58c-2.34,1.73-5.77,5-3.92,14.55.95,5.31,2.26,10.54,3.92,15.67,0,0,4.35,20.36,3.95,26.29-.4,5.93,29.21,1.15,34.09-3.33,4.88-4.49-3.23-20.32-2.08-28.55,1.15-8.24-6.43-24.58-10.09-26.78-3.67-2.19-13.54-3.43-13.54-3.43Z"/><path class="cls-52_camping-82" d="M88.02,288.44c-.34,1.98-.54,3.97-.61,5.98.12,1.48,3.3,5.77,8.57,5.9l2.71-.6-.28-2.49-7.81-10.31-2.58,1.53Z"/><path class="cls-53_camping-82 targetColor" d="M75.33,299.55s3.25-1.4,8.08,3.85c4.82,5.25,3.84,17.4,19.9,24.11,16.06,6.71,15.68,10.53,14.06,13.51-1.62,2.98-5.71,6.37-14.05,2.98-32.06-13.04-39.6-41.72-27.99-44.45Z" style="fill: rgb(251, 191, 36);"/><path class="cls-24_camping-82" d="M75.33,299.55s3.25-1.4,8.08,3.85c4.82,5.25,3.84,17.4,19.9,24.11,16.06,6.71,15.68,10.53,14.06,13.51-1.62,2.98-5.71,6.37-14.05,2.98-32.06-13.04-39.6-41.72-27.99-44.45Z"/><path class="cls-53_camping-82 targetColor" d="M114.49,349.5s19.24,3.11,24.32,8.08c5.08,4.96,13.09,26.05,13.09,26.05l-8.83,4.27-12.36-17.43-12.61-2.95s-18.16-6.39-15.29-12.08,11.66-5.93,11.66-5.93Z" style="fill: rgb(251, 191, 36);"/><path class="cls-22_camping-82" d="M114.49,349.5s19.24,3.11,24.32,8.08c5.08,4.96,13.09,26.05,13.09,26.05l-8.83,4.27-12.36-17.43-12.61-2.95s-18.16-6.39-15.29-12.08,11.66-5.93,11.66-5.93Z"/><path class="cls-53_camping-82 targetColor" d="M143.08,387.85l2.81,7.63,17.96-5.51s-.54-4.5-5.87-3.98c-5.33.52-8.08-1.42-8.08-1.42l-6.83,3.29Z" style="fill: rgb(251, 191, 36);"/><path class="cls-21_camping-82" d="M143.08,387.85l2.81,7.63,17.96-5.51s-.54-4.5-5.87-3.98c-5.33.52-8.08-1.42-8.08-1.42l-6.83,3.29Z"/><path class="cls-52_camping-82" d="M132.62,344.76s3.96,2.88,4.78,4.74c.82,1.86,1.42,8.08,1.42,8.08,0,0-2.85.62-3.55-1-.7-1.63-1.59-3.25-1.59-3.25l-1.64-.95v3.18s-.44,1.15-1.77-.75c-1.18-1.99-2.2-4.07-3.03-6.23l5.39-3.82Z"/><path class="cls-52_camping-82" d="M117.01,337.45c2.49.87,5.15,1.19,7.78.93,2.96-.27,5.93-.23,8.88.1,0,0,2.11.51,1.06,2.77-1.05,2.26,0,3.46-1.06,3.46s-1.38,2.83-3.46,3.28c-1.29.3-2.61.45-3.93.46-.3,0-2.51.91-3.74,0s-7.72-4.61-7.72-4.61c0,0-2.51-3.98,2.19-6.39Z"/><path class="cls-53_camping-82 targetColor" d="M133.67,338.48s17.3-15.15,33.32-17.84c-4.19,1.29-8.26,2.95-12.16,4.97-7.18,3.75-13.91,8.3-20.06,13.58l-1.1-.72Z" style="fill: rgb(251, 191, 36);"/><path class="cls-27_camping-82" d="M133.67,338.48s17.3-15.15,33.32-17.84c-4.19,1.29-8.26,2.95-12.16,4.97-7.18,3.75-13.91,8.3-20.06,13.58l-1.1-.72Z"/><polygon class="cls-51_camping-82" points="157.05 320.97 158.61 326.03 163.87 323.64 162.44 319.23 157.05 320.97"/><path class="cls-53_camping-82 targetColor" d="M115.24,398.82l1.77,9.47,18.01-.77s-.22-5.94-5.77-6.25-4.73-4.1-4.73-4.1l-9.28,1.65Z" style="fill: rgb(251, 191, 36);"/><path class="cls-23_camping-82" d="M115.24,398.82l1.77,9.47,18.01-.77s-.22-5.94-5.77-6.25-4.73-4.1-4.73-4.1l-9.28,1.65Z"/><line class="cls-2_camping-82" x1="117.01" y1="408.28" x2="135.03" y2="407.52"/><path class="cls-53_camping-82 targetColor" d="M55.65,383.04s0-4.35,5.48-4.56c5.48-.21,16.47,8.54,17.09,14.03.61,5.49,6.32,12.92,0,17.17-6.32,4.25-18.91-1.03-19.73-6.92s-4.66-11.29-2.84-19.72Z" style="fill: rgb(251, 191, 36);"/><path class="cls-30_camping-82" d="M55.65,383.04s0-4.35,5.48-4.56c5.48-.21,16.47,8.54,17.09,14.03.61,5.49,6.32,12.92,0,17.17-6.32,4.25-18.91-1.03-19.73-6.92s-4.66-11.29-2.84-19.72Z"/><path class="cls-26_camping-82" d="M59.73,388.54s0-2.93,3.7-3.07,11.09,5.77,11.54,9.45c.45,3.68,4.25,8.7,0,11.54-4.25,2.84-12.69-.69-13.29-4.7-.6-4-3.17-7.56-1.95-13.22Z"/><path class="cls-52_camping-82" d="M113.12,274.41s-1.94,21.23-8.66,22.68-10.99-1.03-13.43-7.45,1.86-21.86,12.23-19.53c10.37,2.33,9.86,4.3,9.86,4.3Z"/><path class="cls-52_camping-82" d="M91.48,282.45s-1.71-2.2-2.43-1.15-.12,5.77,1.56,5.58.88-4.43.88-4.43Z"/><path class="cls-53_camping-82 targetColor" d="M85.52,282.79c-.32,1.73-1.63,2.17-2.92-2.55-.54-2.31-1.15-2.99,0-5.09.31-.46.49-.99.53-1.53,0-.84-.8-1.43-1.29-2.1-1.4-1.95-.6-4.61.24-6.92l3.23-8.61c.26-.86.69-1.67,1.26-2.36,1.92-2.05,5.3-1.1,7.88,0,3.1,1.32,5.93,3.74,9.3,3.96,4.9.33,12.21,6.1,8.08,8.65,0,0-5.08-1.77-9.23-.92-9.56,2-16.5,14.56-17.07,17.48Z" style="fill: rgb(251, 191, 36);"/><path class="cls-29_camping-82" d="M112.98,264.57c-.1.71-.53,1.34-1.15,1.7h0s-5.08-1.77-9.23-.92c-9.56,1.96-16.5,14.52-17.07,17.44-.12.59-.33,1.03-.63,1.15s-.5,0-.77-.27c-.76-1.03-1.27-2.21-1.51-3.46-.54-2.31-1.15-2.99,0-5.09l.07-.12c.27-.43.43-.91.46-1.42,0-.84-.8-1.43-1.29-2.1-1.4-1.95-.6-4.61.24-6.92,1.08-2.86,2.15-5.73,3.23-8.61l.24-.63h0c.22-.62.56-1.19.99-1.68,1.92-2.05,5.3-1.1,7.88,0,3.1,1.32,5.93,3.74,9.3,3.96,3.99.3,9.56,4.16,9.25,6.97Z"/><path class="cls-25_camping-82" d="M103.8,260.05s-1.95,1.85-8.56,3.36c-6.18,1.42-11.89,10.5-12.59,11.63.27-.43.43-.91.46-1.42,0-.84-.8-1.43-1.29-2.1-1.4-1.95-.6-4.61.24-6.92,1.08-2.86,2.15-5.73,3.23-8.61l.24-.63h0l.99-1.68,3.81.83,13.46,5.55Z"/><path class="cls-32_camping-82" d="M111.78,266.27h0s-5.08-1.77-9.23-.92c-9.52,1.96-16.45,14.52-17.03,17.44-.12.59-.33,1.03-.63,1.15-.27-.03-.54-.12-.77-.27-.35-.25,2.65-7,2.65-7,2.8-4.3,6.27-8.12,10.29-11.31,6.45-5.04,15.76-1.07,15.76-1.07.08.06.14.14.2.23.48.84-1.03,1.64-1.23,1.74Z"/><path class="cls-53_camping-82 targetColor" d="M79.21,354.76s.44,11.91,4.5,15.48c4.06,3.58,26.29,9.47,26.29,9.47,0,0,5.05,15.63,5.24,19.1.18,3.47,13.36-3.65,13.36-3.65,0,0-3.82-21.92-4.83-24.41-1.02-2.49-17.89-16-17.89-16h-26.66Z" style="fill: rgb(251, 191, 36);"/><path class="cls-16_camping-82" d="M79.21,354.76s.44,11.91,4.5,15.48c4.06,3.58,26.29,9.47,26.29,9.47,0,0,5.05,15.63,5.24,19.1.18,3.47,13.36-3.65,13.36-3.65,0,0-3.82-21.92-4.83-24.41-1.02-2.49-17.89-16-17.89-16h-26.66Z"/></g><g id="character_2_camping-82"><path class="cls-53_camping-82 targetColor" d="M336.59,400.07c1.02.79,1.75,1.9,2.09,3.15.06,1-.16,1.99-.62,2.87-2.55,5.82-6.51,10.9-11.54,14.79-1.21,1-2.58,1.78-4.06,2.31-1.85.52-3.81.58-5.69.15-6.85-1.3-12.53-6.06-17.43-11.03-4.9-4.97-9.49-10.46-15.55-13.94,8.26-5.92,19.28-13.61,29.42-15.67,8.56-1.71,17.75,11.94,23.38,17.36Z" style="fill: rgb(251, 191, 36);"/><path class="cls-33_camping-82" d="M338.05,406.11c-2.55,5.82-6.51,10.9-11.54,14.79-1.21,1-2.58,1.78-4.06,2.31-1.85.52-3.81.58-5.69.15-3.56-.75-6.91-2.26-9.84-4.42-2.72-1.97-5.26-4.18-7.59-6.61-4.89-4.98-9.49-10.46-15.55-13.94,8.26-5.92,19.28-13.61,29.42-15.67,7.71-1.57,15.97,9.46,21.64,15.59v.06c.57.62,1.15,1.15,1.64,1.7,1.02.79,1.75,1.9,2.09,3.15.09.99-.09,2-.52,2.9Z"/><path class="cls-31_camping-82" d="M338.05,406.11c-2.55,5.82-6.51,10.9-11.54,14.79-1.21,1-2.58,1.78-4.06,2.31-1.85.52-3.81.58-5.69.15-3.56-.75-6.91-2.26-9.84-4.42-.29-.27-.55-.57-.78-.89-3.91-5.34,1.96-18.87,11.71-22.58,5.77-2.14,12.24-1.06,16.99,2.84v.06c.57.62,1.15,1.15,1.64,1.7,1.02.79,1.75,1.9,2.09,3.15.09.99-.09,2-.52,2.9Z"/><path class="cls-53_camping-82 targetColor" d="M286.56,360.22s-16.57-.16-23.23,1.83c-6.67,2-26.19,32.21-26.19,32.21,1.87,2.19,4.01,4.13,6.38,5.77,3.6,2.38,18.33-14.07,18.33-14.07l33.4-1.42,3.16-2.91,14.24-13.16s-22.12-2.32-26.08-8.25Z" style="fill: rgb(251, 191, 36);"/><path class="cls-15_camping-82" d="M286.56,360.22s-16.57-.16-23.23,1.83c-6.67,2-26.19,32.21-26.19,32.21,1.87,2.19,4.01,4.13,6.38,5.77,3.6,2.38,18.33-14.07,18.33-14.07l33.4-1.42,3.16-2.91,14.24-13.16s-22.12-2.32-26.08-8.25Z"/><path class="cls-53_camping-82 targetColor" d="M227.42,392.06c-1.09-.83-2.34-1.41-3.68-1.7-1.39-.24-2.74.62-3.1,1.98-.04.59.06,1.18.3,1.72,1.11,3.14,2.61,6.12,4.46,8.88,1.05,1.86,2.67,3.34,4.61,4.23,2.81,1.05,5.98-.21,8.46-1.9,1.85-1.27,3.67-3.16,3.46-5.39-.29-2.5-3.15-4.89-5.49-5.33-3.41-.62-5.88-.55-9.02-2.5Z" style="fill: rgb(251, 191, 36);"/><path class="cls-53_camping-82 targetColor" d="M281.86,323.18c-.84,1.36-1.52,2.81-2.23,4.25-2.69,5.51-5.68,10.87-8.98,16.05-.22.35-.53.74-.93.7-.23-.05-.45-.16-.61-.33-1.51-1.28-3.21-2.32-5.04-3.08-2.31-.97-5.45-1.28-6.92.74-.76,1.21-1.01,2.67-.72,4.06.39,3,1.68,5.81,3.68,8.08,1.8,2.07,4.18,3.53,6.83,4.21,1.88.51,3.88.33,5.63-.51.94-.56,1.78-1.26,2.51-2.07,5.03-5.12,9.15-11.06,12.19-17.56,1.14-2.09,1.77-4.41,1.83-6.78,0-1.47-.46-2.91-.54-4.37s.18-2.98.15-4.46c-.06-1.67-.72-4.55-2.87-3.59-1.59.68-3.13,3.28-3.99,4.67Z" style="fill: rgb(251, 191, 36);"/><path class="cls-6_camping-82" d="M281.86,323.18c-.84,1.36-1.52,2.81-2.23,4.25-2.69,5.51-5.68,10.87-8.98,16.05-.22.35-.53.74-.93.7-.23-.05-.45-.16-.61-.33-1.51-1.28-3.21-2.32-5.04-3.08-2.31-.97-5.45-1.28-6.92.74-.76,1.21-1.01,2.67-.72,4.06.39,3,1.68,5.81,3.68,8.08,1.8,2.07,4.18,3.53,6.83,4.21,1.88.51,3.88.33,5.63-.51.94-.56,1.78-1.26,2.51-2.07,5.03-5.12,9.15-11.06,12.19-17.56,1.14-2.09,1.77-4.41,1.83-6.78,0-1.47-.46-2.91-.54-4.37s.18-2.98.15-4.46c-.06-1.67-.72-4.55-2.87-3.59-1.59.68-3.13,3.28-3.99,4.67Z"/><path class="cls-53_camping-82 targetColor" d="M305.11,310.09s14.09,4.25,16.22,7.75c2.13,3.51,6.22,50.29,3.32,58.06s-15,10.05-15,10.05c0,0-22.85-9.89-23.07-25.74-.22-15.85,0-39.57,0-39.57,0,0-2.27-8.39,18.53-10.56Z" style="fill: rgb(251, 191, 36);"/><path class="cls-8_camping-82" d="M305.11,310.09s14.09,4.25,16.22,7.75c2.13,3.51,6.22,50.29,3.32,58.06s-15,10.05-15,10.05c0,0-22.85-9.89-23.07-25.74-.22-15.85,0-39.57,0-39.57,0,0-2.27-8.39,18.53-10.56Z"/><path class="cls-53_camping-82 targetColor" d="M320.98,372.98s-5.77,10.29-15,14.87-19.38,9.62-20.48,14.88c-1.1,5.26-.88,16.57-.88,16.57,0,0-8.42,3.32-11.66-2.47-2.01-3.59-3.46-13.47-4.3-20.47-.67-5.67,1.41-11.32,5.61-15.19,6.24-5.8,14.18-9.44,22.65-10.38,20.49-2.32,23.41-5.05,24.06,2.19Z" style="fill: rgb(251, 191, 36);"/><path class="cls-9_camping-82" d="M320.98,373.06s-5.77,10.29-15,14.87c-9.23,4.58-19.38,9.62-20.48,14.88-1.1,5.26-.88,16.57-.88,16.57,0,0-8.42,3.32-11.66-2.47-2.01-3.59-3.46-13.47-4.3-20.47-.67-5.67,1.41-11.32,5.61-15.19,6.24-5.8,14.18-9.44,22.65-10.38,20.49-2.32,23.41-5.13,24.06,2.19Z"/><path class="cls-53_camping-82 targetColor" d="M297.65,341.78c.91.68,1.74,1.46,2.49,2.31,1.59,1.83,4.26,2.26,6.34,1.02,2.95-1.75,6.61-3.46,8.34-2.25,3.14,2.15,14.77,13.77,4.45,27.56-10.31,13.79-19.07-4.49-22.7-6.33s-9.41,1.33-11.1-2.02c-1.68-3.35.14-29.42,12.17-20.28Z" style="fill: rgb(251, 191, 36);"/><path class="cls-7_camping-82" d="M297.65,341.78c.91.68,1.74,1.46,2.49,2.31,1.59,1.83,4.26,2.26,6.34,1.02,2.95-1.75,6.61-3.46,8.34-2.25,3.14,2.15,14.77,13.77,4.45,27.56-10.31,13.79-19.07-4.49-22.7-6.33s-9.41,1.33-11.1-2.02c-1.68-3.35.14-29.42,12.17-20.28Z"/><path class="cls-5_camping-82" d="M295.62,344.77c.91.68,1.74,1.45,2.48,2.31,1.59,1.83,4.26,2.25,6.34,1.02,2.95-1.75,6.62-3.46,8.35-2.31,3.14,2.16,16.8,10.8,6.48,24.58-10.31,13.79-19.07-4.49-22.7-6.33-3.63-1.85-9.41,1.33-11.1-2.02-1.68-3.35-1.89-26.38,10.14-17.25Z"/><path class="cls-53_camping-82 targetColor" d="M310.8,326.86c-1.05-3.96,1-8.09,4.79-9.66,1.9-.81,4.09-.57,5.77.65,6.1,4.12,8.24,33.19,8.24,33.19,0,0-6.84,15.34-19.89,14.44-13.05-.9,6.47-17.43,6.47-17.43l-5.38-21.19Z" style="fill: rgb(251, 191, 36);"/><path class="cls-12_camping-82" d="M310.8,326.86c-1.05-3.96,1-8.09,4.79-9.66,1.9-.81,4.09-.57,5.77.65,6.1,4.12,8.24,33.19,8.24,33.19,0,0-6.84,15.34-19.89,14.44-13.05-.9,6.47-17.43,6.47-17.43l-5.38-21.19Z"/><path class="cls-53_camping-82 targetColor" d="M303.77,362.64c-.03.09-.03.18,0,.27.48,1.28,1.27,2.42,2.31,3.32.09.09.21.16.33.18.12-.01.23-.05.32-.12.45-.27.83-.65,1.1-1.1-.77-.72-1.49-1.49-2.16-2.31-.21-.29-.39-.74-.76-.84s-1.07.28-1.14.59Z" style="fill: rgb(251, 191, 36);"/><path class="cls-50_camping-82" d="M297.99,363.63c-.57,0-1.34,0-1.41.44.86.29,1.75.5,2.65.62-.91.9-2.72.99-4.29,1h-3.31c-.3-.03-.59.03-.85.17-.28.21-.15.58.15.76.36.19.75.29,1.15.31l2.87.42c-1.08-.16-2.16-.26-3.25-.3-.15,0-.33,0-.4.1s.07.24.22.32c1.29.7,2.68,1.2,4.12,1.45l-1.87-.5c-.25-.09-.53-.09-.78,0-.4.2-.1.65.27.87.82.46,1.74.72,2.69.75-.46-.03-.93-.01-1.38.06.3.65,1.51.75,2.47.72,1.65-.13,3.29-.48,4.86-1.02,2.16-.66,3.05-2.43,4.31-3.59.24-.22-.51-.51-.44-.78s-.18-.65-.43-.92c-.81-.92-1.02-1.28-2.56-1.1-1.59.17-3.18.24-4.78.21Z"/><path class="cls-53_camping-82 targetColor" d="M269.57,426.56c-1.1,1.43-1.17,3.4-.17,4.9,1.02,1.45,2.62,2.4,4.38,2.61,1.75.2,3.52.04,5.2-.47,1.08-.25,2.11-.67,3.06-1.25,1.71-1.23,2.89-3.07,3.3-5.13.4-2.05.48-4.15.24-6.22,0-.18-.05-.35-.14-.5-.13-.15-.31-.24-.51-.27-2.54-.68-8.16-2.17-9.92.27-.77,1.07-.59,2.31-1.67,3.38-1.08,1.07-2.75,1.49-3.77,2.68Z" style="fill: rgb(251, 191, 36);"/><path class="cls-14_camping-82" d="M314.52,403.8c-3.33,3.7-4.34,9.53-1.9,13.84.41.77.97,1.46,1.64,2.02,1.51,1.03,3.35,1.47,5.17,1.22,6.58-.48,9.47-4.61,13.76-9.58,2.88-3.37,2.07-5.87,1.08-7.5-4.06-6.74-15.35-4.95-19.75-.01Z"/><path class="cls-10_camping-82" d="M318.67,405.48c-1.9,2.08-2.31,5.12-1.04,7.63.21.45.52.84.9,1.15.83.57,1.84.81,2.84.68,3.62-.27,5.21-2.51,7.58-5.27,1.59-1.85,1.15-3.23.59-4.13-2.23-3.73-8.44-2.76-10.87-.06Z"/><path class="cls-50_camping-82" d="M280.93,285.38s.75,22.61,6.54,24.38c5.79,1.77,14.44-3.74,15.86-9.3,1.42-5.56-2.24-19.02-2.24-19.02,0,0-21.26-3.88-20.17,3.95Z"/><path class="cls-48_camping-82" d="M276.62,279.11s-2.76,4.33.84,6.19,11.84-1.48,13.51-1.32c2.27.47,4.5,1.11,6.68,1.89,1.52,1.31,2.51,3.13,2.78,5.12.46,3.36,0,4.5,0,4.5,0,0,2.68-4.79,2.88-2.98.21,1.81.47,4.75-1.21,5.57l1.56.77s4.25-7.42,3.46-11.07c-.38-1.83,1.52-5.85.09-7.93-1.43-2.08-6.19-2.21-6.19-2.21,0,0-11.74-9.38-24.4,1.45Z"/><path class="cls-50_camping-82" d="M303.66,298.82s2,9.58,1.44,11.22c0,0-3.46,3.63-5.93,3.78-1.31.09-2.62.09-3.93,0v-5.08c3.74-2.39,6.67-5.85,8.42-9.93Z"/><path class="cls-13_camping-82" d="M303.66,298.82s2,9.58,1.44,11.22c0,0-3.46,3.63-5.93,3.78-1.31.09-2.62.09-3.93,0v-5.08c3.74-2.39,6.67-5.85,8.42-9.93Z"/><polygon class="cls-53_camping-82 targetColor" points="297.23 352.75 254.36 331.11 253.52 336.6 289.96 355.5 297.23 352.75" style="fill: rgb(251, 191, 36);"/><path class="cls-53_camping-82 targetColor" d="M254.6,329.57c-.75-1.08-2.36-.97-3.53-1.58-.61-.38-1.16-.85-1.63-1.4-.91-1.06-2.11-1.83-3.46-2.2-1.38-.33-2.8.33-3.46,1.58-.44,1.06,0,2.31-.2,3.46-.08.65-.35,1.26-.39,1.89-.03,1.08.39,2.12,1.15,2.88.76.74,1.63,1.38,2.56,1.89.38.3.86.46,1.35.43.27-.1.55-.17.83-.2.28.07.52.23.69.46.62.74,1.47,1.25,2.42,1.43,1.3.02,2.5-.73,3.03-1.92.66-1.4,1.58-5.35.62-6.74Z" style="fill: rgb(251, 191, 36);"/><path class="cls-4_camping-82" d="M297.23,352.75l-1.15.75-42.43-16.81c.1-.14.18-.28.25-.43.67-1.52,1.04-3.16,1.08-4.82l42.25,21.31Z"/><path class="cls-53_camping-82 targetColor" d="M296.11,353.5l-2.68,5.08-40.46-20.82c.1-.13.18-.28.25-.43.68-1.52,1.05-3.16,1.08-4.82l41.8,21Z" style="fill: rgb(251, 191, 36);"/><path class="cls-11_camping-82" d="M296.11,353.5l-2.38,5.08-40.76-20.82c.1-.13.18-.28.25-.43.68-1.52,1.05-3.16,1.08-4.82l41.8,21Z"/><path class="cls-37_camping-82" d="M255.02,331.45c-.04,1.66-.41,3.3-1.08,4.82-.07.15-.16.29-.25.43-.59.96-1.65,1.53-2.78,1.49-.95-.18-1.8-.69-2.42-1.43-.17-.23-.41-.39-.69-.46-.28.03-.56.1-.83.2-.49.03-.97-.12-1.35-.43-.93-.51-1.8-1.15-2.56-1.89-.77-.76-1.18-1.8-1.15-2.88,0-.63.31-1.25.39-1.89.16-1.15-.24-2.36.2-3.46.66-1.26,2.08-1.91,3.46-1.58,1.35.38,2.55,1.14,3.46,2.2.47.55,1.02,1.02,1.63,1.4,1.15.61,2.78.5,3.53,1.58.34.58.5,1.25.46,1.92Z"/><path class="cls-53_camping-82 targetColor" d="M253.5,331.89c-.04,1.66-.41,3.3-1.08,4.82-.07.15-.16.29-.25.43-.6.98-1.68,1.55-2.83,1.49-.95-.18-1.8-.69-2.42-1.43-.17-.23-.41-.39-.69-.46-.28.03-.56.1-.83.2-.49.03-.97-.12-1.35-.43-.93-.51-1.8-1.15-2.56-1.89-.77-.76-1.18-1.8-1.15-2.88,0-.63.31-1.25.39-1.89.16-1.15-.24-2.36.2-3.46.66-1.26,2.08-1.91,3.46-1.58,1.35.38,2.55,1.14,3.46,2.2.47.55,1.02,1.02,1.63,1.4,1.15.61,2.78.5,3.53,1.58.36.57.53,1.24.51,1.92Z" style="fill: rgb(251, 191, 36);"/><path class="cls-50_camping-82" d="M256.5,336.19c.24-1.62,1.14-3.07,2.49-3.99.4,1.27.4,2.64,0,3.91-.34-1.07-.34-2.22,0-3.29.18-.6.69-1.28,1.3-1.15s.66.97.58,1.58c-.13,1.05-.33,2.08-.62,3.09-.06-1.01.15-2.01.62-2.91.06-.15.17-.28.32-.35.36-.14.65.29.75.65.39,1.21.5,2.48.31,3.74,0-1.03.18-2.05.5-3.03.02-.16.12-.31.27-.39.22-.09.45.1.57.3.25.49.37,1.02.36,1.57.11,2.54-.38,5.08-1.44,7.39-.07.21-.2.39-.37.52-.15.08-.32.13-.5.13-4.71.29-5.86-3.95-5.13-7.76Z"/><path class="cls-38_camping-82" d="M299.12,361.59h-.17c-1.85-.24-3.09-2.42-2.76-4.85s2.09-4.21,3.95-3.96h.24c-1.78-.13-3.46,1.62-3.76,3.97-.3,2.35.78,4.45,2.5,4.83Z"/><path class="cls-35_camping-82" d="M302.87,357.66c-.31,2.31-1.96,4.07-3.75,3.96-1.72-.38-2.85-2.48-2.53-4.8.32-2.32,1.98-4.1,3.76-3.97,1.71.38,2.83,2.5,2.51,4.81Z"/><path class="cls-36_camping-82" d="M303.29,357.66c-.32,2.42-2.1,4.2-3.95,3.95h-.23c1.79.12,3.46-1.62,3.75-3.96.29-2.34-.81-4.41-2.51-4.81h.17c1.88.21,3.09,2.42,2.77,4.82Z"/><polygon class="cls-34_camping-82" points="297.23 352.75 294.52 358.44 293.44 358.57 296.12 353.5 297.23 352.75"/></g></svg>