<svg id="_0368_construction_worker" xmlns="http://www.w3.org/2000/svg" xmlns:xlink="http://www.w3.org/1999/xlink" viewBox="0 0 500 500" data-imageid="construction-worker-9" imageName="Construction Worker" class="illustrations_image" style="width: 160px;"><defs><style>.cls-1_construction-worker-9{fill:url(#linear-gradient);}.cls-1_construction-worker-9,.cls-2_construction-worker-9,.cls-3_construction-worker-9,.cls-4_construction-worker-9,.cls-5_construction-worker-9,.cls-6_construction-worker-9,.cls-7_construction-worker-9,.cls-8_construction-worker-9,.cls-9_construction-worker-9,.cls-10_construction-worker-9,.cls-11_construction-worker-9,.cls-12_construction-worker-9,.cls-13_construction-worker-9,.cls-14_construction-worker-9,.cls-15_construction-worker-9,.cls-16_construction-worker-9,.cls-17_construction-worker-9,.cls-18_construction-worker-9,.cls-19_construction-worker-9,.cls-20_construction-worker-9,.cls-21_construction-worker-9,.cls-22_construction-worker-9{stroke-width:0px;}.cls-2_construction-worker-9{fill:url(#linear-gradient-11-construction-worker-9);}.cls-3_construction-worker-9{fill:url(#linear-gradient-12-construction-worker-9);}.cls-4_construction-worker-9{fill:url(#linear-gradient-13-construction-worker-9);}.cls-5_construction-worker-9{fill:url(#linear-gradient-10-construction-worker-9);}.cls-6_construction-worker-9{fill:url(#linear-gradient-15-construction-worker-9);}.cls-7_construction-worker-9{fill:url(#linear-gradient-14-construction-worker-9);}.cls-8_construction-worker-9{opacity:.36;}.cls-8_construction-worker-9,.cls-9_construction-worker-9,.cls-21_construction-worker-9,.cls-22_construction-worker-9{fill:#68e1fd;}.cls-8_construction-worker-9,.cls-9_construction-worker-9,.cls-22_construction-worker-9{isolation:isolate;}.cls-9_construction-worker-9{opacity:.66;}.cls-10_construction-worker-9{fill:url(#linear-gradient-4-construction-worker-9);}.cls-11_construction-worker-9{fill:url(#linear-gradient-2-construction-worker-9);}.cls-12_construction-worker-9{fill:url(#linear-gradient-3-construction-worker-9);}.cls-13_construction-worker-9{fill:url(#linear-gradient-8-construction-worker-9);}.cls-14_construction-worker-9{fill:url(#linear-gradient-9-construction-worker-9);}.cls-15_construction-worker-9{fill:url(#linear-gradient-7-construction-worker-9);}.cls-16_construction-worker-9{fill:url(#linear-gradient-5-construction-worker-9);}.cls-17_construction-worker-9{fill:url(#linear-gradient-6-construction-worker-9);}.cls-18_construction-worker-9{fill:#3f3d56;}.cls-19_construction-worker-9{fill:#231f20;}.cls-20_construction-worker-9{fill:#ffb4a3;}.cls-22_construction-worker-9{opacity:.25;}</style><linearGradient id="linear-gradient-construction-worker-9" x1="831.87" y1="2003.9" x2="789.44" y2="2060.04" gradientTransform="translate(-515.73 2248.65) scale(1 -1)" gradientUnits="userSpaceOnUse"><stop offset="0" stop-color="#fff" stop-opacity="0"/><stop offset="1" stop-color="#fff"/></linearGradient><linearGradient id="linear-gradient-2-construction-worker-9" x1="741.12" y1="1863.94" x2="710.96" y2="1977.96" gradientTransform="translate(-515.73 2248.65) scale(1 -1)" gradientUnits="userSpaceOnUse"><stop offset="0" stop-color="#231f20" stop-opacity="0"/><stop offset="1" stop-color="#231f20"/></linearGradient><linearGradient id="linear-gradient-3-construction-worker-9" x1="721.73" y1="1898.28" x2="724.56" y2="1894.9" xlink:href="#linear-gradient-2-construction-worker-9"/><linearGradient id="linear-gradient-4-construction-worker-9" x1="644.33" y1="1867.8" x2="643.04" y2="1965.93" gradientTransform="translate(-471 2246.87) scale(1 -1)" xlink:href="#linear-gradient-2-construction-worker-9"/><linearGradient id="linear-gradient-5-construction-worker-9" x1="660.03" y1="1973.28" x2="662.17" y2="1890.58" gradientTransform="translate(-471 2246.87) scale(1 -1)" xlink:href="#linear-gradient-2-construction-worker-9"/><linearGradient id="linear-gradient-6-construction-worker-9" x1="589.46" y1="1888.45" x2="646.46" y2="1833.6" gradientTransform="translate(-471 2246.87) scale(1 -1)" xlink:href="#linear-gradient-2-construction-worker-9"/><linearGradient id="linear-gradient-7-construction-worker-9" x1="658.4" y1="1893.78" x2="619.27" y2="1835.49" gradientTransform="translate(-471 2246.87) scale(1 -1)" xlink:href="#linear-gradient-2-construction-worker-9"/><linearGradient id="linear-gradient-8-construction-worker-9" x1="626.85" y1="1901.67" x2="642" y2="1811.38" gradientTransform="translate(-471 2246.87) scale(1 -1)" xlink:href="#linear-gradient-2-construction-worker-9"/><linearGradient id="linear-gradient-9-construction-worker-9" x1="889.64" y1="2051.69" x2="815.92" y2="2039.13" xlink:href="#linear-gradient-construction-worker-9"/><linearGradient id="linear-gradient-10-construction-worker-9" x1="328.84" y1="190.13" x2="398.56" y2="251.38" gradientTransform="matrix(1,0,0,1,0,0)" xlink:href="#linear-gradient-2-construction-worker-9"/><linearGradient id="linear-gradient-11-construction-worker-9" x1="864.22" y1="2016.7" x2="789.37" y2="2013.84" gradientTransform="translate(-471 2246.87) scale(1 -1)" xlink:href="#linear-gradient-2-construction-worker-9"/><linearGradient id="linear-gradient-12-construction-worker-9" x1="886.83" y1="2015.89" x2="797.69" y2="2063.03" xlink:href="#linear-gradient-construction-worker-9"/><linearGradient id="linear-gradient-13-construction-worker-9" x1="818.45" y1="2147.91" x2="833.34" y2="2110.85" xlink:href="#linear-gradient-2-construction-worker-9"/><linearGradient id="linear-gradient-14-construction-worker-9" x1="285.48" y1="91.68" x2="307.41" y2="113.83" gradientTransform="matrix(1,0,0,1,0,0)" xlink:href="#linear-gradient-construction-worker-9"/><linearGradient id="linear-gradient-15-construction-worker-9" x1="294.84" y1="110.31" x2="324.16" y2="58.41" gradientTransform="matrix(1,0,0,1,0,0)" xlink:href="#linear-gradient-2-construction-worker-9"/></defs><g id="background_construction-worker-9"><path class="cls-22_construction-worker-9 targetColor" d="M475.12,341.51c-.92,6.95-2.16,13.91-3.67,20.86-7.25,32.85-21.81,65.66-48.47,86.22-25.92,19.92-59.65,25.77-91.93,31-52.43,8.51-105.7,17.04-158.42,10.67-49.37-6.04-99.58-27.23-127.6-68.31-16.16-23.64-23.49-51.65-24.82-80.44-.83-21.84,1.16-43.7,5.92-65.03,10.6-49.16,31.68-95.43,44.84-143.95,6.4-23.54,11.13-48.16,24.5-68.56,14.63-22.25,38.52-37.47,63.97-45.32,46.52-14.34,120.99-15.3,166.36,6.88,65.86,32.21,83.53,87.21,107.59,151.17,14.02,37.41,35.09,72.68,41.42,112.12,2.64,17.46,2.74,35.21.31,52.69Z" style="fill: rgb(34, 197, 94);"/><path class="cls-8_construction-worker-9 targetColor" d="M475.12,341.51c-.92,6.95-2.16,13.91-3.67,20.86-7.25,32.85-21.81,65.66-48.47,86.22-25.92,19.92-59.65,25.77-91.93,31-52.43,8.51-105.7,17.04-158.42,10.67-49.37-6.04-99.58-27.23-127.6-68.31-16.16-23.64-23.49-51.65-24.82-80.44h454.91Z" style="fill: rgb(34, 197, 94);"/></g><g id="character_construction-worker-9"><ellipse class="cls-9_construction-worker-9 targetColor" cx="253.8" cy="409.53" rx="182.7" ry="18.19" style="fill: rgb(34, 197, 94);"/><path class="cls-20_construction-worker-9" d="M317.55,384.13l.15,7.52c-3.02.78-6.18.85-9.23.18-4.41-1.17-7.36-6.31-7.36-6.31l.43-2.93,16.01,1.54Z"/><path class="cls-21_construction-worker-9 targetColor" d="M298.99,163.84l-13.91,56.19-25.42,25.41c-2.46,2.47-2.72,6.37-.6,9.14l4.69,6.12c2.63,3.43,7.55,4.08,10.98,1.45.34-.26.65-.54.94-.85l32.26-34.41,12.81-45.14c.38-1.96-1.39-17.05-2.29-18.86-1.21-2.57-3.84-5.02-6.29-8-3.7-4.59-11.75,3.21-13.17,8.96Z" style="fill: rgb(34, 197, 94);"/><path class="cls-1_construction-worker-9" d="M298.99,163.84l-13.91,56.19-25.42,25.41c-2.46,2.47-2.72,6.37-.6,9.14l4.69,6.12c2.63,3.43,7.55,4.08,10.98,1.45.34-.26.65-.54.94-.85l32.26-34.41,12.81-45.14c.38-1.96-1.39-17.05-2.29-18.86-1.21-2.57-3.84-5.02-6.29-8-3.7-4.59-11.75,3.21-13.17,8.96Z"/><polygon class="cls-21_construction-worker-9 targetColor" points="215.02 387.44 194.87 387.44 171.33 352.44 175.12 349.88 197.29 382.87 209.71 382.87 204.97 351.58 209.47 350.88 215.02 387.44" style="fill: rgb(34, 197, 94);"/><path class="cls-21_construction-worker-9 targetColor" d="M142.73,384.2c-.58,0-1.14-.16-1.63-.47-1.39-.91-1.81-2.76-.93-4.17l20.15-31.42c.56-.87,1.52-1.4,2.56-1.39h42.11l36.01-86.91c.47-1.13,1.56-1.86,2.78-1.88h30.51c1.68-.11,3.13,1.15,3.24,2.83.11,1.68-1.15,3.13-2.83,3.24-.14,0-.27,0-.41,0h-28.4l-36.01,86.91c-.46,1.13-1.56,1.87-2.78,1.88h-42.5l-19.25,30.04c-.59.87-1.58,1.37-2.63,1.34Z" style="fill: rgb(34, 197, 94);"/><path class="cls-11_construction-worker-9" d="M277.34,260.96c0,1.68-1.37,3.04-3.05,3.05h-28.4l-36.01,86.89c-.07.2-.18.39-.32.56l-.08-.56-4.52.68.18,1.21h-28.08l20.22,30.08h12.42l-4.56-30.08h1.93c1.01-.01,1.95-.54,2.49-1.39l5.48,36.05h-20.18l-23.32-34.66h-6.95l-19.23,30.03c-.56.87-1.53,1.39-2.56,1.39-.58,0-1.15-.17-1.64-.49-1.4-.9-1.81-2.76-.93-4.17l20.15-31.44c.56-.87,1.53-1.39,2.56-1.39h42.11l36.01-86.92c.47-1.12,1.57-1.85,2.78-1.86h30.46c1.68,0,3.04,1.36,3.05,3.03Z"/><path class="cls-20_construction-worker-9" d="M252.17,249.97l-5.15,3.71c-2.6,1.41-3.64,4.62-2.36,7.29.57,2.6,1.39,5.56,3.81,6.69,1.24.46,2.56.64,3.88.53l5.97-.08c2.53,0,5.56-.36,6.72-2.61.78-1.5.39-3.37.97-4.96,1.02-2.78,4.48-3.75,5.88-6.31,1.03-1.95.67-4.35-.89-5.91-1.34-1.08-2.93-1.8-4.63-2.07-2.07-.51-4.77-1.81-6.81-1.25-2.5.68-5.31,3.49-7.38,4.99Z"/><path class="cls-12_construction-worker-9" d="M209.57,351.49c-.54.85-1.48,1.38-2.49,1.39h-1.93l-.18-1.21,4.52-.68.08.5Z"/><polygon class="cls-21_construction-worker-9 targetColor" points="255.94 294.88 232.52 349.16 131.93 349.16 88.51 294.88 255.94 294.88" style="fill: rgb(34, 197, 94);"/><polygon class="cls-10_construction-worker-9" points="255.94 294.88 232.52 349.16 131.93 349.16 88.51 294.88 255.94 294.88"/><polygon class="cls-21_construction-worker-9 targetColor" points="255.94 294.88 232.52 349.16 166.65 349.16 123.22 294.88 255.94 294.88" style="fill: rgb(34, 197, 94);"/><polygon class="cls-16_construction-worker-9" points="255.94 294.88 232.52 349.16 166.65 349.16 123.22 294.88 255.94 294.88"/><circle class="cls-18_construction-worker-9" cx="153.22" cy="391.87" r="29.57"/><circle class="cls-17_construction-worker-9" cx="153.22" cy="391.87" r="29.57"/><circle class="cls-18_construction-worker-9" cx="161.37" cy="391.87" r="29.57"/><circle class="cls-15_construction-worker-9" cx="161.37" cy="391.87" r="29.57"/><circle class="cls-21_construction-worker-9 targetColor" cx="163.37" cy="390.02" r="15.15" style="fill: rgb(34, 197, 94);"/><circle class="cls-13_construction-worker-9" cx="163.37" cy="390.02" r="15.15"/><path class="cls-21_construction-worker-9 targetColor" d="M166.79,384.2c-.58,0-1.15-.16-1.64-.47-1.38-.92-1.79-2.76-.92-4.17l20.14-31.42c.57-.87,1.53-1.39,2.57-1.39h42.11l36.06-86.96c.46-1.13,1.56-1.87,2.78-1.88h30.43c1.68-.11,3.13,1.15,3.24,2.83.11,1.68-1.15,3.13-2.83,3.24-.14,0-.27,0-.41,0h-28.43l-36.01,86.91c-.47,1.13-1.56,1.86-2.78,1.88h-42.49l-19.23,30.04c-.57.88-1.55,1.4-2.6,1.39Z" style="fill: rgb(34, 197, 94);"/><path class="cls-20_construction-worker-9" d="M369.52,385.19l1.15,7.47c-2.91,1.12-6.05,1.53-9.15,1.21-4.55-.68-8.18-5.45-8.18-5.45v-2.96l16.17-.26Z"/><path class="cls-18_construction-worker-9" d="M317.8,254.45l-18,60.77-.45,68.98s15.13,4.38,20.15,1.47l6.15-68.24,36.81-59.12s-30.35-14.25-44.67-3.87Z"/><path class="cls-19_construction-worker-9" d="M317.8,254.45l-18,60.77-.45,68.98s15.13,4.38,20.15,1.47l6.15-68.24,36.81-59.12s-30.35-14.25-44.67-3.87Z"/><path class="cls-19_construction-worker-9" d="M327.25,253.49l5.72,54.49,17.97,79.88s15.7,2.07,20.14-1.53l-9.44-68.22,1.84-64.35s-23.92-12.66-36.21-.28Z"/><path class="cls-20_construction-worker-9" d="M294.84,141.5c4.88,7.02,7.79.68,9.35,3.55,2.25,4.47,3.61,9.33,4.01,14.32,0,0,15.66-7.59,19.29-13.31,0,0-6.38-9.35-6.02-15.45.36-6.11,2.35-16.3-3.78-22.78-6.13-6.48-15.91-12.22-26.92-8.86-13.04,3.92-16.49,12.92,4.09,42.53Z"/><path class="cls-18_construction-worker-9" d="M304.72,119.31c.24,1.96.35,4.09,1.59,5.56.71-1.25.45-3.12,1.21-4.17.31-.46,1.04-.72,1.39-1.17.46-.49.81-1.09,1-1.74.15-.5.24-1.02.43-1.5.17-.5.57-.9,1.07-1.07.52-.08,1.05.12,1.39.53.33.41.56.88.68,1.39.48,1.36.41,2.86-.19,4.17-.34.54-.78,1.02-1.29,1.39-.49.46-.91.99-1.27,1.56,1.4.15,2.63,1.01,3.27,2.27.71,1.18,1.1,2.55,1.78,3.74.27.61.82,1.06,1.47,1.21,1,.07,1.63-1.08,1.79-2.07s.21-2.14,1-2.78c.14,1.54.99,2.92,2.29,3.74,1.39-1.72,1.13-4.17.75-6.4-1-5.68-2.24-11.32-3.73-16.91-.29-1.72-1.1-3.32-2.31-4.58-.91-.71-1.99-1.19-3.13-1.39-3.98-.9-10.94-.36-12.29,4.48-1.15,4.12,2.56,9.62,3.09,13.74Z"/><path class="cls-21_construction-worker-9 targetColor" d="M302.08,176.61c-1.72-10.33,2.35-20.78,10.61-27.22,5.08-3.94,10.17-7.59,12.41-8.22,5.16-1.39,15.62,5.56,17.18,8.91,1.56,3.35,22.78,107,22.78,107,0,0-8.98,8.71-25.96,9.57-23.03,1.17-24.87-3.21-24.87-3.21l-12.14-86.84Z" style="fill: rgb(34, 197, 94);"/><path class="cls-14_construction-worker-9" d="M302.08,176.61c-1.72-10.33,2.35-20.78,10.61-27.22,5.08-3.94,10.17-7.59,12.41-8.22,5.16-1.39,15.62,5.56,17.18,8.91,1.56,3.35,22.78,107,22.78,107,0,0-8.98,8.71-25.96,9.57-23.03,1.17-24.87-3.21-24.87-3.21l-12.14-86.84Z"/><path class="cls-5_construction-worker-9" d="M345.1,176.36s-1.82,31.34-.85,36.55c.98,5.21,6.71,14.75,6.71,14.75l-9.48-.91-12.54-8.47-1.46-30.41,17.62-11.52Z"/><path class="cls-21_construction-worker-9 targetColor" d="M322.21,143.97c-6.06,5.87-13.28,17.68-10.42,39.62l1.82,3.21,3.32-5.35s-2.57-23,8.43-32.28c0,0,6.43-6.15,12-4.17l-2.21-1.74c-3.89-3.02-9.41-2.72-12.95.71Z" style="fill: rgb(34, 197, 94);"/><path class="cls-21_construction-worker-9 targetColor" d="M306.5,151.45s-3.92,3.87-4.56,7.72c-.64,3.85,1.71,28.7,1.71,28.7l5.15-1.07s-3.87-24.21-3.21-28.7,2.03-4.17,2.03-4.17l-1.11-2.48Z" style="fill: rgb(34, 197, 94);"/><polygon class="cls-18_construction-worker-9" points="313.65 267.3 302.79 208.01 303.65 187.88 316.93 181.45 339.64 222.59 352.08 228.17 354.65 206.73 365.05 257.09 361.51 283.02 313.65 267.3"/><polygon class="cls-2_construction-worker-9" points="313.65 267.3 302.79 208.01 303.65 187.88 316.93 181.45 339.64 222.59 352.08 228.17 354.65 206.73 365.05 257.09 361.51 283.02 313.65 267.3"/><path class="cls-18_construction-worker-9" d="M305.89,123.72s-1.28-.78-1.39,2.35-10.47,9.92-12.07,10.24c-1.6.32-1.91,1.25-.32,3.87,1.59,2.61,5.22,6.7,8.14,6.13,2.4-.47,4.74-1.23,6.95-2.27,4.49-2.78,5.4-6.4,5.56-11.9.14-4.21-3.45-9.65-6.87-8.41Z"/><path class="cls-20_construction-worker-9" d="M293.82,138.71c3.17-1.24,6.15-2.92,8.85-4.99,3.6-3.05,4.1-2.46,5.28-.45,1.31,2.63.28,5.82-2.31,7.19-3,1.65-7.62,3.53-8.27,2.68-.65-.85-3.38-3.55-3.55-4.44Z"/><path class="cls-21_construction-worker-9 targetColor" d="M323.53,157.56l-13.91,56.25-25.41,25.41c-2.46,2.47-2.72,6.37-.6,9.14l4.69,6.12c2.62,3.43,7.52,4.09,10.96,1.47.34-.26.67-.55.96-.87l32.26-34.41,12.85-45.14c.39-1.96-1.39-17.05-2.28-18.86-1.21-2.57-3.84-5.02-6.29-8-3.73-4.66-11.78,3.14-13.24,8.89Z" style="fill: rgb(34, 197, 94);"/><path class="cls-3_construction-worker-9" d="M323.53,157.56l-13.91,56.25-25.41,25.41c-2.46,2.47-2.72,6.37-.6,9.14l4.69,6.12c2.62,3.43,7.52,4.09,10.96,1.47.34-.26.67-.55.96-.87l32.26-34.41,12.85-45.14c.39-1.96-1.39-17.05-2.28-18.86-1.21-2.57-3.84-5.02-6.29-8-3.73-4.66-11.78,3.14-13.24,8.89Z"/><path class="cls-20_construction-worker-9" d="M277.45,252.98l-5.15,3.71c-2.63,1.38-3.68,4.61-2.36,7.27.57,2.6,1.39,5.56,3.81,6.69,1.23.47,2.56.66,3.88.54l5.97-.08c2.53,0,5.56-.36,6.72-2.61.78-1.5.39-3.38.97-4.96,1.02-2.78,4.48-3.77,5.88-6.31,1.03-1.96.67-4.36-.89-5.92-1.34-1.07-2.94-1.78-4.63-2.06-2.07-.51-4.77-1.82-6.81-1.25-2.49.68-5.31,3.49-7.38,4.99Z"/><polygon class="cls-21_construction-worker-9 targetColor" points="238.59 387.44 218.43 387.44 194.9 352.44 198.69 349.88 220.86 382.87 233.28 382.87 228.54 351.58 233.05 350.88 238.59 387.44" style="fill: rgb(34, 197, 94);"/><path class="cls-18_construction-worker-9" d="M317.52,388.89c-.11-.3-.3-.58-.54-.79-.27-.17-.58-.25-.89-.24-2.07,0-3.88,1.52-5.95,1.65-1.82-.11-3.59-.68-5.13-1.65-1.64-.79-3.63-1.39-5.23-.51-.61.4-1.17.87-1.68,1.39-1.09.78-2.25,1.45-3.48,1.99-3.57,1.81-6.81,4.2-9.58,7.08-.37.34-.67.75-.9,1.2-.39,1.15-.07,2.42.82,3.24,1.63,1.65,4.17,1.78,6.51,1.77,5.8,0,11.6-.25,17.4-.46,3.35.06,6.68-.44,9.86-1.49.5-.15.95-.44,1.29-.83.24-.38.39-.81.43-1.25.32-1.88.67-4.38-.25-6.15s-1.86-3.23-2.67-4.94Z"/><path class="cls-18_construction-worker-9" d="M371.7,392.28c-.11-.3-.3-.58-.54-.79-.26-.16-.57-.23-.88-.22-2.04,0-3.84,1.49-5.88,1.63-1.8-.11-3.55-.68-5.08-1.64-1.63-.78-3.59-1.39-5.16-.5-.6.38-1.16.83-1.67,1.32-1.07.78-2.22,1.44-3.44,1.96-3.52,1.78-6.72,4.13-9.47,6.95-.36.34-.66.74-.89,1.18-.39,1.14-.08,2.4.81,3.21,1.6,1.63,4.17,1.75,6.44,1.74,5.73,0,11.46-.24,17.19-.45,3.3.06,6.6-.44,9.74-1.47.5-.15.94-.44,1.28-.83.23-.37.38-.79.43-1.22.31-1.86.65-4.34-.25-6.08-.9-1.74-1.84-3.09-2.63-4.78Z"/><path class="cls-21_construction-worker-9 targetColor" d="M298.49,111.21l14.92,18.4s-2.89,14.42-8.04,15.13l.29,3s11-9.29,11.85-17.86l.43-5.56,1.57-21.43-4.71,2.14-.32,20.28-12.43-16.38-3.56,2.28Z" style="fill: rgb(34, 197, 94);"/><path class="cls-4_construction-worker-9" d="M298.49,111.21l14.92,18.4s-2.89,14.42-8.04,15.13l.29,3s11-9.29,11.85-17.86l.43-5.56,1.57-21.43-4.71,2.14-.32,20.28-12.43-16.38-3.56,2.28Z"/><path class="cls-21_construction-worker-9 targetColor" d="M273.36,119.74l2-4.67v-1.74c.1-5.22,1.6-20.86,15.14-27.26,20.25-9.51,27.9,8.75,28.26,9.74h0l3.37,1.59.57,5.1-49.34,17.24Z" style="fill: rgb(34, 197, 94);"/><path class="cls-7_construction-worker-9" d="M318.78,95.74s-23.56,11.71-36.09,16.41c-1.86.75-3.77,1.35-5.72,1.79l-1.61-.65c.1-5.22,1.6-20.86,15.14-27.26,6.01-2.78,10.9-3.2,14.84-2.31,9.32,2.11,13.16,11.35,13.42,11.99v.03Z"/><path class="cls-6_construction-worker-9" d="M318.78,95.74s-23.56,11.71-36.09,16.41c.33-6.13,2.53-20.07,15.1-25.98,2.39-1.16,4.93-1.98,7.55-2.45,9.32,2.11,13.16,11.35,13.42,11.99v.03Z"/></g></svg>