<svg width="512" height="512" viewBox="0 0 512 512" fill="none" xmlns="http://www.w3.org/2000/svg">
<rect width="512" height="512" fill="#DCFCE7"/>
<path d="M256 84.3333C273.166 135.833 298.916 144.417 316.083 161.583C332.255 177.431 341.511 199.026 341.833 221.667C341.833 244.431 332.79 266.263 316.693 282.36C300.596 298.457 278.764 307.5 256 307.5C233.235 307.5 211.403 298.457 195.307 282.36C179.21 266.263 170.167 244.431 170.167 221.667C170.167 216.517 170.167 211.367 171.883 206.217C173.334 211.293 175.936 215.967 179.487 219.875C183.038 223.782 187.443 226.818 192.358 228.746C197.274 230.674 202.567 231.442 207.828 230.991C213.089 230.54 218.175 228.882 222.69 226.145C227.206 223.409 231.029 219.667 233.863 215.213C236.697 210.758 238.466 205.709 239.031 200.459C239.597 195.21 238.943 189.9 237.123 184.944C235.302 179.988 232.363 175.519 228.533 171.883C187.333 127.25 238.833 84.3333 256 84.3333Z" stroke="#4ADE80" stroke-width="30" stroke-linecap="round" stroke-linejoin="round"/>
<path d="M135.833 427.667L376.167 359" stroke="#4ADE80" stroke-width="30" stroke-linecap="round" stroke-linejoin="round"/>
<path d="M135.833 359L376.167 427.667" stroke="#4ADE80" stroke-width="30" stroke-linecap="round" stroke-linejoin="round"/>
</svg>
